<?xml version="1.0" encoding="UTF-8"?>
<svg version="1.1" xmlns="http://www.w3.org/2000/svg" width="256" height="256">
<path d="M0 0 C12.9132668 11.17719316 21.18095252 24.92831748 22.5234375 42.12890625 C23.09713502 58.1207247 17.97009824 73.40222447 7.05078125 85.27734375 C-6.66460361 97.99798641 -21.45288894 102.6116873 -39.73828125 102.234375 C-54.86364526 101.5475062 -67.92996957 93.90859342 -78.1796875 83.06640625 C-87.43089541 72.14077157 -92.67743624 57.6639444 -92.00390625 43.27734375 C-89.84120857 24.94010426 -82.45992425 10.20839791 -67.99609375 -1.234375 C-47.74220676 -15.00000382 -19.63991251 -14.94096496 0 0 Z M-50.7265625 10.92578125 C-47.74111793 12.24853785 -47.74111793 12.24853785 -44.7890625 10.98828125 C-36.30923213 8.35846044 -27.16606907 9.83457608 -18.7265625 11.92578125 C-23.05110116 7.60124259 -28.78597971 7.74516812 -34.6015625 7.61328125 C-40.60758695 7.68386487 -45.19687049 8.63763283 -50.7265625 10.92578125 Z M-7.36791992 12.90429688 C-8.36965031 13.86614756 -9.35685633 14.84326719 -10.33203125 15.83203125 C-10.85670486 16.34954956 -11.38137848 16.86706787 -11.92195129 17.40026855 C-13.0299756 18.50050273 -14.13161678 19.60719678 -15.22729492 20.71972656 C-16.89951574 22.41106816 -18.59877808 24.07117808 -20.30273438 25.73046875 C-21.37677412 26.80421791 -22.44909762 27.87968707 -23.51953125 28.95703125 C-24.28042305 29.69499939 -24.28042305 29.69499939 -25.0566864 30.44787598 C-28.62340918 34.13426424 -29.26248796 36.91093877 -29.7265625 41.92578125 C-31.7890625 44.36328125 -31.7890625 44.36328125 -33.7265625 45.92578125 C-36.61148239 44.6325413 -38.74273762 43.41270869 -40.7265625 40.92578125 C-40.84375 38.83984375 -40.84375 38.83984375 -40.6015625 36.55078125 C-40.4771672 32.6402158 -40.4771672 32.6402158 -42.7265625 29.36328125 C-43.7165625 28.55890625 -44.7065625 27.75453125 -45.7265625 26.92578125 C-47.17606883 25.50038871 -48.61300601 24.06213438 -50.0390625 22.61328125 C-50.73644531 21.91589844 -51.43382812 21.21851563 -52.15234375 20.5 C-52.67183594 19.98050781 -53.19132812 19.46101563 -53.7265625 18.92578125 C-54.7165625 19.42078125 -54.7165625 19.42078125 -55.7265625 19.92578125 C-55.22125 20.40789062 -54.7159375 20.89 -54.1953125 21.38671875 C-53.545625 22.01835938 -52.8959375 22.65 -52.2265625 23.30078125 C-51.576875 23.92726563 -50.9271875 24.55375 -50.2578125 25.19921875 C-48.7265625 26.92578125 -48.7265625 26.92578125 -48.7265625 28.92578125 C-50.0465625 29.25578125 -51.3665625 29.58578125 -52.7265625 29.92578125 C-52.7265625 31.24578125 -52.7265625 32.56578125 -52.7265625 33.92578125 C-57.31962746 32.43978965 -60.16225495 30.07563443 -63.7265625 26.92578125 C-61.25916301 32.46774136 -57.32324554 37.01645268 -52.7265625 40.92578125 C-50.29192948 41.63621515 -48.33614751 41.74036606 -45.8125 41.72265625 C-42.12304102 42.08192941 -40.27131174 44.38103201 -37.7265625 46.92578125 C-39.04325167 55.01903065 -49.79369434 60.31083397 -55.89453125 64.8125 C-61.28743064 68.37825714 -61.28743064 68.37825714 -64.6640625 73.55078125 C-64.6846875 74.33453125 -64.7053125 75.11828125 -64.7265625 75.92578125 C-64.0665625 76.58578125 -63.4065625 77.24578125 -62.7265625 77.92578125 C-59.48003117 77.7860299 -58.02859055 77.19363824 -55.5859375 75.02734375 C-54.88984375 74.21007812 -54.19375 73.3928125 -53.4765625 72.55078125 C-52.70441406 71.65230469 -51.93226562 70.75382812 -51.13671875 69.828125 C-50.34136719 68.87035156 -49.54601562 67.91257813 -48.7265625 66.92578125 C-47.92089844 65.95769531 -47.11523438 64.98960937 -46.28515625 63.9921875 C-43.32950393 60.40352892 -40.39506039 56.80937169 -37.58984375 53.1015625 C-36.97496094 52.38355469 -36.36007813 51.66554687 -35.7265625 50.92578125 C-35.0665625 50.92578125 -34.4065625 50.92578125 -33.7265625 50.92578125 C-32.3938437 52.39268684 -31.13742381 53.92900626 -29.9140625 55.48828125 C-25.97860867 60.38049047 -22.02384693 65.25035298 -17.9765625 70.05078125 C-17.43410889 70.71408447 -16.89165527 71.3773877 -16.33276367 72.06079102 C-13.96272612 74.85136018 -12.42665705 76.65879604 -8.9609375 77.98046875 C-6.51870159 78.17764931 -6.51870159 78.17764931 -4.7265625 75.92578125 C-4.90085844 72.92304112 -5.28792979 71.39192244 -7.36547852 69.18408203 C-8.06342529 68.6682959 -8.76137207 68.15250977 -9.48046875 67.62109375 C-10.25326172 67.03714844 -11.02605469 66.45320313 -11.82226562 65.8515625 C-12.63630859 65.25730469 -13.45035156 64.66304687 -14.2890625 64.05078125 C-15.87555979 62.8683795 -17.46020702 61.68349126 -19.04296875 60.49609375 C-19.81914551 59.91504883 -20.59532227 59.33400391 -21.39501953 58.73535156 C-24.97739118 55.95498102 -28.36220363 52.96407125 -31.7265625 49.92578125 C-31.15311313 47.05853439 -30.865111 46.06432975 -28.7265625 43.92578125 C-25.71350293 44.31456313 -24.32970939 45.19034999 -21.7265625 46.92578125 C-19.14690298 44.4639765 -16.5913781 41.97839943 -14.0390625 39.48828125 C-13.31783203 38.80056641 -12.59660156 38.11285156 -11.85351562 37.40429688 C-6.45721383 32.10655767 -1.46240166 26.54685117 -0.23828125 18.859375 C-0.29628906 18.03566406 -0.35429687 17.21195313 -0.4140625 16.36328125 C-0.48173828 15.09291016 -0.48173828 15.09291016 -0.55078125 13.796875 C-0.60878906 13.17941406 -0.66679687 12.56195313 -0.7265625 11.92578125 C-3.85707805 10.3950393 -4.5263312 10.77579747 -7.36791992 12.90429688 Z M-62.7265625 11.92578125 C-62.7265625 12.58578125 -62.7265625 13.24578125 -62.7265625 13.92578125 C-62.0665625 13.59578125 -61.4065625 13.26578125 -60.7265625 12.92578125 C-61.3865625 12.59578125 -62.0465625 12.26578125 -62.7265625 11.92578125 Z M-16.7265625 12.92578125 C-16.3965625 13.58578125 -16.0665625 14.24578125 -15.7265625 14.92578125 C-15.0665625 14.59578125 -14.4065625 14.26578125 -13.7265625 13.92578125 C-14.7165625 13.59578125 -15.7065625 13.26578125 -16.7265625 12.92578125 Z M-69.7265625 30.92578125 C-72.7094711 39.27082317 -74.05166489 47.20664728 -71.7265625 55.92578125 C-71.3965625 55.92578125 -71.0665625 55.92578125 -70.7265625 55.92578125 C-70.74976562 55.04277344 -70.77296875 54.15976563 -70.796875 53.25 C-70.91269803 45.54776882 -70.44382871 38.4388209 -68.7265625 30.92578125 C-69.0565625 30.92578125 -69.3865625 30.92578125 -69.7265625 30.92578125 Z M-0.7265625 30.92578125 C-0.3965625 32.57578125 -0.0665625 34.22578125 0.2734375 35.92578125 C0.6034375 34.60578125 0.9334375 33.28578125 1.2734375 31.92578125 C0.6134375 31.59578125 -0.0465625 31.26578125 -0.7265625 30.92578125 Z M1.2734375 35.92578125 C1.2734375 42.52578125 1.2734375 49.12578125 1.2734375 55.92578125 C3.27572398 51.9212083 3.54508756 50.25579377 3.5234375 45.92578125 C3.53117187 44.37890625 3.53117187 44.37890625 3.5390625 42.80078125 C3.42006765 39.61399129 3.42006765 39.61399129 1.2734375 35.92578125 Z M-70.7265625 55.92578125 C-69.7265625 58.92578125 -69.7265625 58.92578125 -69.7265625 58.92578125 Z M0.2734375 55.92578125 C1.2734375 58.92578125 1.2734375 58.92578125 1.2734375 58.92578125 Z M-69.7265625 58.92578125 C-69.38211369 61.3984489 -69.38211369 61.3984489 -68.7265625 63.92578125 C-68.0665625 64.25578125 -67.4065625 64.58578125 -66.7265625 64.92578125 C-67.3865625 62.94578125 -68.0465625 60.96578125 -68.7265625 58.92578125 C-69.0565625 58.92578125 -69.3865625 58.92578125 -69.7265625 58.92578125 Z M-0.7265625 58.92578125 C-1.3865625 60.90578125 -2.0465625 62.88578125 -2.7265625 64.92578125 C-1.7365625 63.93578125 -0.7465625 62.94578125 0.2734375 61.92578125 C-0.0565625 60.93578125 -0.3865625 59.94578125 -0.7265625 58.92578125 Z M-51.7265625 77.92578125 C-51.7265625 78.58578125 -51.7265625 79.24578125 -51.7265625 79.92578125 C-49.2515625 80.42078125 -49.2515625 80.42078125 -46.7265625 80.92578125 C-48.98980534 78.84718207 -48.98980534 78.84718207 -51.7265625 77.92578125 Z M-46.7265625 80.92578125 C-43.67682565 82.95893915 -43.03699382 83.18063205 -39.6015625 83.19140625 C-38.81265625 83.19398438 -38.02375 83.1965625 -37.2109375 83.19921875 C-35.98117188 83.18761719 -35.98117188 83.18761719 -34.7265625 83.17578125 C-33.90671875 83.18351562 -33.086875 83.19125 -32.2421875 83.19921875 C-31.45328125 83.19664062 -30.664375 83.1940625 -29.8515625 83.19140625 C-28.77261719 83.18802246 -28.77261719 83.18802246 -27.671875 83.18457031 C-25.40302812 83.02796565 -25.40302812 83.02796565 -22.7265625 80.92578125 C-30.6465625 80.92578125 -38.5665625 80.92578125 -46.7265625 80.92578125 Z " fill="#D46A2C" transform="translate(162.7265625,66.07421875)"/>
<path d="M0 0 C2 1.875 2 1.875 3 4 C2.6875 6.25 2.6875 6.25 2 8 C-0.475 7.505 -0.475 7.505 -3 7 C-3 6.34 -3 5.68 -3 5 C-4.98 5 -6.96 5 -9 5 C-8.18727401 7.18371009 -8.18727401 7.18371009 -6.00390625 7.78125 C-5.19824219 8.0184375 -4.39257812 8.255625 -3.5625 8.5 C0.78359909 9.78359909 0.78359909 9.78359909 3 12 C3.41652031 15.74868276 3.4979164 18.11733001 1.625 21.4375 C-2.44963882 23.86288025 -6.38235632 23.75937994 -11 23 C-13.625 21.3125 -13.625 21.3125 -15 19 C-15.25 16.25 -15.25 16.25 -15 14 C-14.01 13.67 -13.02 13.34 -12 13 C-10.32916181 14.32810215 -8.66270287 15.66172696 -7 17 C-5.68 17 -4.36 17 -3 17 C-3.33 16.34 -3.66 15.68 -4 15 C-5.44384068 14.55419262 -6.90599413 14.16667779 -8.375 13.8125 C-12.62954923 12.51381407 -12.62954923 12.51381407 -14.26171875 10.25 C-15.0625 8.3125 -15.0625 8.3125 -16 5 C-17.65 5 -19.3 5 -21 5 C-21 10.61 -21 16.22 -21 22 C-22.65 22.33 -24.3 22.66 -26 23 C-27.59412284 19.81175432 -27.10174735 16.37103338 -27.0625 12.875 C-27.05798828 12.12089844 -27.05347656 11.36679688 -27.04882812 10.58984375 C-27.03703499 8.72652873 -27.01909942 6.86325445 -27 5 C-29.97 4.505 -29.97 4.505 -33 4 C-32.67 2.35 -32.34 0.7 -32 -1 C-29.20807795 -1.05380578 -26.4171859 -1.09357669 -23.625 -1.125 C-22.8309375 -1.14175781 -22.036875 -1.15851563 -21.21875 -1.17578125 C-19.14507985 -1.19335473 -17.07116759 -1.10335168 -15 -1 C-14.34 -0.34 -13.68 0.32 -13 1 C-12.34 0.34 -11.68 -0.32 -11 -1 C-7.0777745 -2.74321133 -3.85845926 -1.4732299 0 0 Z " fill="#C37C50" transform="translate(184,178)"/>
<path d="M0 0 C1.39456452 0.00667256 2.78911118 0.01863093 4.18359375 0.03515625 C4.89451172 0.03966797 5.60542969 0.04417969 6.33789062 0.04882812 C8.09899388 0.06064761 9.86005411 0.07858362 11.62109375 0.09765625 C11.95109375 1.74765625 12.28109375 3.39765625 12.62109375 5.09765625 C10.21563737 6.30038444 8.67112422 6.19837097 5.99609375 6.16015625 C4.77019531 6.14662109 4.77019531 6.14662109 3.51953125 6.1328125 C2.57980469 6.11541016 2.57980469 6.11541016 1.62109375 6.09765625 C1.62109375 7.08765625 1.62109375 8.07765625 1.62109375 9.09765625 C4.59109375 9.09765625 7.56109375 9.09765625 10.62109375 9.09765625 C11.00328142 10.75380282 11.33504477 12.42222649 11.62109375 14.09765625 C10.62109375 15.09765625 10.62109375 15.09765625 8.5546875 15.1953125 C7.73097656 15.18371094 6.90726563 15.17210937 6.05859375 15.16015625 C5.23230469 15.15113281 4.40601562 15.14210937 3.5546875 15.1328125 C2.91660156 15.12121094 2.27851562 15.10960937 1.62109375 15.09765625 C1.62109375 16.08765625 1.62109375 17.07765625 1.62109375 18.09765625 C4.92109375 18.09765625 8.22109375 18.09765625 11.62109375 18.09765625 C11.95109375 19.74765625 12.28109375 21.39765625 12.62109375 23.09765625 C9.63425968 24.59107328 6.87709601 24.22940803 3.55859375 24.22265625 C2.28886719 24.22523438 1.01914063 24.2278125 -0.2890625 24.23046875 C-3.37890625 24.09765625 -3.37890625 24.09765625 -4.37890625 23.09765625 C-4.47807195 21.47508081 -4.50970402 19.84825794 -4.51171875 18.22265625 C-4.51300781 17.2378125 -4.51429687 16.25296875 -4.515625 15.23828125 C-4.51175781 14.201875 -4.50789063 13.16546875 -4.50390625 12.09765625 C-4.50970703 10.54304687 -4.50970703 10.54304687 -4.515625 8.95703125 C-4.51433594 7.9721875 -4.51304688 6.98734375 -4.51171875 5.97265625 C-4.51059082 5.06257812 -4.50946289 4.1525 -4.50830078 3.21484375 C-4.29142148 -0.33379268 -3.67677908 0.10626529 0 0 Z " fill="#CA7645" transform="translate(120.37890625,176.90234375)"/>
<path d="M0 0 C1.2065625 0.0309375 1.2065625 0.0309375 2.4375 0.0625 C3.81342202 3.11567679 5.15923626 6.18124026 6.5 9.25 C7.08491211 10.54647461 7.08491211 10.54647461 7.68164062 11.86914062 C8.04580078 12.71025391 8.40996094 13.55136719 8.78515625 14.41796875 C9.12554932 15.18778076 9.46594238 15.95759277 9.81665039 16.75073242 C10.56027806 19.51967085 10.184863 21.32499189 9.4375 24.0625 C8.1175 24.0625 6.7975 24.0625 5.4375 24.0625 C5.2725 23.423125 5.1075 22.78375 4.9375 22.125 C3.655714 19.90130759 3.655714 19.90130759 1.5234375 19.57421875 C-0.49825155 19.3349022 -2.53091939 19.19356972 -4.5625 19.0625 C-4.8925 20.3825 -5.2225 21.7025 -5.5625 23.0625 C-7.5 23.625 -7.5 23.625 -9.5625 24.0625 C-9.8925 23.7325 -10.2225 23.4025 -10.5625 23.0625 C-10.12260113 17.659992 -8.64671817 13.1620962 -6.5625 8.1875 C-6.28921875 7.51203125 -6.0159375 6.8365625 -5.734375 6.140625 C-3.25142383 0.07930302 -3.25142383 0.07930302 0 0 Z M-0.5625 9.0625 C-0.8925 10.3825 -1.2225 11.7025 -1.5625 13.0625 C-0.5725 12.7325 0.4175 12.4025 1.4375 12.0625 C0.7775 11.0725 0.1175 10.0825 -0.5625 9.0625 Z " fill="#CC7441" transform="translate(144.5625,176.9375)"/>
<path d="M0 0 C4.95 0 9.9 0 15 0 C15.33 1.65 15.66 3.3 16 5 C15 6 15 6 12.71484375 6.09765625 C11.34005859 6.08025391 11.34005859 6.08025391 9.9375 6.0625 C9.01839844 6.05347656 8.09929687 6.04445312 7.15234375 6.03515625 C6.44207031 6.02355469 5.73179688 6.01195312 5 6 C5 6.99 5 7.98 5 9 C7.64 9 10.28 9 13 9 C14.0625 10.875 14.0625 10.875 15 13 C14.67 13.66 14.34 14.32 14 15 C11.03 15 8.06 15 5 15 C5 17.64 5 20.28 5 23 C3.125 23.625 3.125 23.625 1 24 C-1 22 -1 22 -1.24291992 19.96875 C-1.23881104 19.1540625 -1.23470215 18.339375 -1.23046875 17.5 C-1.22853516 16.613125 -1.22660156 15.72625 -1.22460938 14.8125 C-1.21236328 13.884375 -1.20011719 12.95625 -1.1875 12 C-1.18685547 11.071875 -1.18621094 10.14375 -1.18554688 9.1875 C-1.14037187 2.28074374 -1.14037187 2.28074374 0 0 Z " fill="#C7723F" transform="translate(98,177)"/>
<path d="M0 0 C1.65 0.33 3.3 0.66 5 1 C5 6.61 5 12.22 5 18 C7.97 18 10.94 18 14 18 C15 22 15 22 14 24 C11.68756208 24.02685412 9.3750373 24.04632841 7.0625 24.0625 C5.77472656 24.07410156 4.48695312 24.08570313 3.16015625 24.09765625 C0 24 0 24 -1 23 C-1.0991657 21.37742456 -1.13079777 19.75060169 -1.1328125 18.125 C-1.13410156 17.14015625 -1.13539062 16.1553125 -1.13671875 15.140625 C-1.13285156 14.10421875 -1.12898438 13.0678125 -1.125 12 C-1.13080078 10.44539062 -1.13080078 10.44539062 -1.13671875 8.859375 C-1.13542969 7.87453125 -1.13414063 6.8896875 -1.1328125 5.875 C-1.13168457 4.96492187 -1.13055664 4.05484375 -1.12939453 3.1171875 C-1 1 -1 1 0 0 Z " fill="#D36628" transform="translate(71,177)"/>
<path d="M0 0 C1.08667969 0.01804688 2.17335938 0.03609375 3.29296875 0.0546875 C4.54013672 0.08949219 4.54013672 0.08949219 5.8125 0.125 C5.8125 1.115 5.8125 2.105 5.8125 3.125 C2.1825 3.455 -1.4475 3.785 -5.1875 4.125 C-5.0225 5.671875 -4.8575 7.21875 -4.6875 8.8125 C-4.31394346 12.31459256 -4.1875 15.57735012 -4.1875 19.125 C-0.8875 19.125 2.4125 19.125 5.8125 19.125 C5.8125 19.785 5.8125 20.445 5.8125 21.125 C4.06343341 21.32101608 2.31318154 21.50647403 0.5625 21.6875 C-0.41203125 21.79191406 -1.3865625 21.89632812 -2.390625 22.00390625 C-4.98212609 22.11610811 -6.7246807 21.80988514 -9.1875 21.125 C-9.27437496 18.00017438 -9.32784568 14.87565754 -9.375 11.75 C-9.40013672 10.86054688 -9.42527344 9.97109375 -9.45117188 9.0546875 C-9.46083984 8.20390625 -9.47050781 7.353125 -9.48046875 6.4765625 C-9.4961792 5.69104004 -9.51188965 4.90551758 -9.52807617 4.09619141 C-9.41568604 3.44569824 -9.3032959 2.79520508 -9.1875 2.125 C-5.66070901 -0.22619399 -4.15870515 -0.08943452 0 0 Z " fill="#D16629" transform="translate(125.1875,177.875)"/>
<path d="M0 0 C4.95 0 9.9 0 15 0 C15 0.99 15 1.98 15 3 C13.35 3.33 11.7 3.66 10 4 C9.67 9.61 9.34 15.22 9 21 C7.68 21.33 6.36 21.66 5 22 C4 21 4 21 3.90234375 17.40234375 C3.9090178 15.91403133 3.92097817 14.42573568 3.9375 12.9375 C3.94201172 12.17888672 3.94652344 11.42027344 3.95117188 10.63867188 C3.9629932 8.75908129 3.98092922 6.87953101 4 5 C2.68 5 1.36 5 0 5 C0 3.35 0 1.7 0 0 Z " fill="#D3743D" transform="translate(153,178)"/>
<path d="M0 0 C3.5625 0.1875 3.5625 0.1875 5.5625 2.1875 C5.88654335 6.56208521 5.67780703 9.37658971 3.5625 13.1875 C-5.47198276 13.80818966 -5.47198276 13.80818966 -9.0625 11.5 C-10.65711817 8.81814217 -10.77848943 7.25640491 -10.4375 4.1875 C-9.4475 3.8575 -8.4575 3.5275 -7.4375 3.1875 C-5.76666181 4.51560215 -4.10020287 5.84922696 -2.4375 7.1875 C-1.1175 7.1875 0.2025 7.1875 1.5625 7.1875 C0.634375 6.259375 0.634375 6.259375 -0.3125 5.3125 C-1.6875 3.9375 -3.0625 2.5625 -4.4375 1.1875 C-3.4375 0.1875 -3.4375 0.1875 0 0 Z " fill="#D56626" transform="translate(179.4375,187.8125)"/>
<path d="M0 0 C1.32 0 2.64 0 4 0 C5.18807993 2.37615986 5.12914522 3.8511742 5.1328125 6.5 C5.13410156 7.386875 5.13539062 8.27375 5.13671875 9.1875 C5.13285156 10.115625 5.12898438 11.04375 5.125 12 C5.12886719 12.928125 5.13273437 13.85625 5.13671875 14.8125 C5.13542969 15.699375 5.13414063 16.58625 5.1328125 17.5 C5.13168457 18.3146875 5.13055664 19.129375 5.12939453 19.96875 C5 22 5 22 4 24 C2.35 23.67 0.7 23.34 -1 23 C-1.02887512 19.35418313 -1.04675585 15.70839537 -1.0625 12.0625 C-1.07087891 11.02158203 -1.07925781 9.98066406 -1.08789062 8.90820312 C-1.09272461 7.42416992 -1.09272461 7.42416992 -1.09765625 5.91015625 C-1.10289307 4.99371338 -1.10812988 4.07727051 -1.11352539 3.13305664 C-1 1 -1 1 0 0 Z " fill="#C87F53" transform="translate(89,177)"/>
<path d="M0 0 C0.33 0.66 0.66 1.32 1 2 C2.2065625 1.7215625 2.2065625 1.7215625 3.4375 1.4375 C4.7059375 1.2209375 4.7059375 1.2209375 6 1 C8.31185174 3.31185174 7.2331476 8.83876498 7.25 11.9375 C7.270625 12.85080078 7.29125 13.76410156 7.3125 14.70507812 C7.34909581 21.16881307 6.53322648 27.00670317 4 33 C3.34 33.66 2.68 34.32 2 35 C2.875 28.25 2.875 28.25 4 26 C4.32962213 18.61258642 4.16851581 11.30322384 3 4 C-2.33789811 5.67266328 -4.11464663 8.52041072 -7.15625 13.00390625 C-9.37443716 15.40537583 -10.80203247 15.68786961 -14 16 C-9.40525596 10.60117576 -4.72323727 5.28666913 0 0 Z M4 3 C4.33 4.65 4.66 6.3 5 8 C5.33 6.68 5.66 5.36 6 4 C5.34 3.67 4.68 3.34 4 3 Z " fill="#CA7D51" transform="translate(158,94)"/>
<path d="M0 0 C2 1.875 2 1.875 3 4 C2.6875 6.25 2.6875 6.25 2 8 C0.35 7.67 -1.3 7.34 -3 7 C-3 6.34 -3 5.68 -3 5 C-5.31 5 -7.62 5 -10 5 C-10 6.65 -10 8.3 -10 10 C-10.99 9.67 -11.98 9.34 -13 9 C-13.1953125 2.9453125 -13.1953125 2.9453125 -13 1 C-8.84633391 -3.15366609 -5.24472918 -2.00253296 0 0 Z " fill="#CB7948" transform="translate(184,178)"/>
<path d="M0 0 C4.07376031 1.61010527 6.76507069 4.53822271 9.75 7.625 C10.25660156 8.140625 10.76320313 8.65625 11.28515625 9.1875 C12.52803902 10.45383339 13.76465276 11.7263144 15 13 C14.67 13.99 14.34 14.98 14 16 C8.61506072 15.69029106 6.17532596 12.64569893 2.6875 8.9375 C2.13771484 8.36966797 1.58792969 7.80183594 1.02148438 7.21679688 C-0.32827365 5.82009075 -1.66541525 4.41121163 -3 3 C-2.01 2.67 -1.02 2.34 0 2 C0 1.34 0 0.68 0 0 Z " fill="#CB7846" transform="translate(100,80)"/>
<path d="M0 0 C4.95 0 9.9 0 15 0 C15.33 1.65 15.66 3.3 16 5 C15 6 15 6 12.71484375 6.09765625 C11.34005859 6.08025391 11.34005859 6.08025391 9.9375 6.0625 C9.01839844 6.05347656 8.09929687 6.04445312 7.15234375 6.03515625 C6.44207031 6.02355469 5.73179688 6.01195312 5 6 C5 6.99 5 7.98 5 9 C7.64 9 10.28 9 13 9 C13 9.33 13 9.66 13 10 C10.03 10 7.06 10 4 10 C4 8.35 4 6.7 4 5 C6.31 4.34 8.62 3.68 11 3 C7.7 3 4.4 3 1 3 C0.67 9.27 0.34 15.54 0 22 C-0.33 22 -0.66 22 -1 22 C-1.02895225 18.70835171 -1.0467823 15.41673601 -1.0625 12.125 C-1.07506836 10.71927734 -1.07506836 10.71927734 -1.08789062 9.28515625 C-1.09111328 8.38925781 -1.09433594 7.49335938 -1.09765625 6.5703125 C-1.10289307 5.74289551 -1.10812988 4.91547852 -1.11352539 4.06298828 C-1 2 -1 2 0 0 Z " fill="#C7845C" transform="translate(98,177)"/>
<path d="M0 0 C2.2425518 1.1212759 3.10891162 2.19609474 4.6875 4.125 C7.46344932 7.46299338 10.46581347 10.40947152 13.6796875 13.32421875 C15 15 15 15 15 19 C9.95193086 18.64008282 7.47760134 15.95601959 4.1875 12.4375 C3.68541016 11.91736328 3.18332031 11.39722656 2.66601562 10.86132812 C1.43470873 9.5831143 0.2160593 8.29272853 -1 7 C-0.34 6.67 0.32 6.34 1 6 C1.66 6.33 2.32 6.66 3 7 C2.505 6.401875 2.01 5.80375 1.5 5.1875 C0 3 0 3 0 0 Z " fill="#CA7442" transform="translate(95,81)"/>
<path d="M0 0 C1.65 0.33 3.3 0.66 5 1 C5 6.61 5 12.22 5 18 C7.97 18 10.94 18 14 18 C15 22 15 22 14 24 C11.68756208 24.02685412 9.3750373 24.04632841 7.0625 24.0625 C5.77472656 24.07410156 4.48695312 24.08570313 3.16015625 24.09765625 C0 24 0 24 -1 23 C-1.0991657 21.37742456 -1.13079777 19.75060169 -1.1328125 18.125 C-1.13410156 17.14015625 -1.13539062 16.1553125 -1.13671875 15.140625 C-1.13285156 14.10421875 -1.12898438 13.0678125 -1.125 12 C-1.13080078 10.44539062 -1.13080078 10.44539062 -1.13671875 8.859375 C-1.13542969 7.87453125 -1.13414063 6.8896875 -1.1328125 5.875 C-1.13168457 4.96492187 -1.13055664 4.05484375 -1.12939453 3.1171875 C-1 1 -1 1 0 0 Z M0 2 C-0.05404449 4.75026417 -0.09369306 7.49946203 -0.125 10.25 C-0.14175781 11.02730469 -0.15851563 11.80460938 -0.17578125 12.60546875 C-0.18222656 13.35957031 -0.18867187 14.11367187 -0.1953125 14.890625 C-0.20578613 15.58188477 -0.21625977 16.27314453 -0.22705078 16.98535156 C-0.0676405 19.43843982 -0.0676405 19.43843982 2 23 C5.3 23 8.6 23 12 23 C12 21.68 12 20.36 12 19 C9.36 19 6.72 19 4 19 C4 13.39 4 7.78 4 2 C2.68 2 1.36 2 0 2 Z " fill="#C18058" transform="translate(71,177)"/>
<path d="M0 0 C2.69201199 2.69201199 3.78206436 5.84355415 5.1875 9.3125 C5.47302734 9.97701172 5.75855469 10.64152344 6.05273438 11.32617188 C7.65685081 15.27206414 8.37010163 17.90553442 7 22 C5.68 22 4.36 22 3 22 C3 21.34 3 20.68 3 20 C3.99 20 4.98 20 6 20 C5.01 16.7 4.02 13.4 3 10 C1.68 10.99 0.36 11.98 -1 13 C-2.32 13 -3.64 13 -5 13 C-4.6875 9.625 -4.6875 9.625 -4 6 C-3.01 5.34 -2.02 4.68 -1 4 C-0.27617533 1.94074861 -0.27617533 1.94074861 0 0 Z M-3 7 C-3.33 8.32 -3.66 9.64 -4 11 C-3.01 10.67 -2.02 10.34 -1 10 C-1.66 9.01 -2.32 8.02 -3 7 Z " fill="#C57747" transform="translate(147,179)"/>
<path d="M0 0 C3 1 3 1 4.4375 2.5625 C6.13676051 4.45137102 6.13676051 4.45137102 10 4 C10 4.66 10 5.32 10 6 C7.69 6.33 5.38 6.66 3 7 C4.6396875 7.2165625 4.6396875 7.2165625 6.3125 7.4375 C10 8 10 8 13 9 C11.35034831 10.64965169 9.4523645 10.24949498 7.1875 10.3125 C3.71407677 10.27274694 2.34908685 10.22441297 -0.625 8.3125 C-2.21961817 5.63064217 -2.34098943 4.06890491 -2 1 C-1.34 0.67 -0.68 0.34 0 0 Z " fill="#C97C4F" transform="translate(171,191)"/>
<path d="M0 0 C0.99 0 1.98 0 3 0 C3 6.93 3 13.86 3 21 C2.01 20.67 1.02 20.34 0 20 C0 13.4 0 6.8 0 0 Z " fill="#D56627" transform="translate(89,179)"/>
<path d="M0 0 C0.66 0.99 1.32 1.98 2 3 C4.76276177 2.47731534 7.3260876 1.89130413 10 1 C12.03435531 4.72965139 13 6.66905042 13 11 C12.01 11 11.02 11 10 11 C9.67 9.68 9.34 8.36 9 7 C8.37351563 6.95101562 7.74703125 6.90203125 7.1015625 6.8515625 C6.28429687 6.77679688 5.46703125 6.70203125 4.625 6.625 C3.40683594 6.52058594 3.40683594 6.52058594 2.1640625 6.4140625 C0 6 0 6 -2 4 C-1.34 2.68 -0.68 1.36 0 0 Z " fill="#D66727" transform="translate(140,188)"/>
<path d="M0 0 C4.95 0 9.9 0 15 0 C15.33 1.65 15.66 3.3 16 5 C13.59454362 6.20272819 12.05003047 6.10071472 9.375 6.0625 C8.14910156 6.04896484 8.14910156 6.04896484 6.8984375 6.03515625 C5.95871094 6.01775391 5.95871094 6.01775391 5 6 C5 6.99 5 7.98 5 9 C4.34 9 3.68 9 3 9 C3 7.68 3 6.36 3 5 C5.40545638 3.79727181 6.94996953 3.89928528 9.625 3.9375 C10.85089844 3.95103516 10.85089844 3.95103516 12.1015625 3.96484375 C13.04128906 3.98224609 13.04128906 3.98224609 14 4 C14 3.01 14 2.02 14 1 C12.06215735 1.14120714 10.12473045 1.28812873 8.1875 1.4375 C7.10855469 1.51871094 6.02960938 1.59992188 4.91796875 1.68359375 C1.94010095 1.90212461 1.94010095 1.90212461 -1 3 C-0.67 2.01 -0.34 1.02 0 0 Z " fill="#C47D52" transform="translate(117,177)"/>
<path d="M0 0 C1.69141656 0.08963062 3.37959602 0.24577676 5.0625 0.4375 C6.44115234 0.59025391 6.44115234 0.59025391 7.84765625 0.74609375 C8.55792969 0.82988281 9.26820312 0.91367188 10 1 C10 1.66 10 2.32 10 3 C7.69 3.33 5.38 3.66 3 4 C2.67 6.64 2.34 9.28 2 12 C1.01 12 0.02 12 -1 12 C-1.02687279 10.18757948 -1.04633715 8.37504767 -1.0625 6.5625 C-1.07410156 5.55316406 -1.08570312 4.54382813 -1.09765625 3.50390625 C-1 1 -1 1 0 0 Z " fill="#D46827" transform="translate(100,187)"/>
<path d="M0 0 C1.2065625 0.0309375 1.2065625 0.0309375 2.4375 0.0625 C2.4375 2.0425 2.4375 4.0225 2.4375 6.0625 C1.798125 6.35125 1.15875 6.64 0.5 6.9375 C-1.71456079 7.89073451 -1.71456079 7.89073451 -2.5625 10.0625 C-2.5625 9.4025 -2.5625 8.7425 -2.5625 8.0625 C-3.2225 8.0625 -3.8825 8.0625 -4.5625 8.0625 C-3.54737544 0.08652135 -3.54737544 0.08652135 0 0 Z " fill="#CD6F38" transform="translate(144.5625,176.9375)"/>
<path d="M0 0 C1.32 0.33 2.64 0.66 4 1 C3 4 3 4 1 7 C-0.14356873 11.10677826 -0.10216407 15.0684446 -0.0625 19.3125 C-0.05347656 20.56675781 -0.04445313 21.82101563 -0.03515625 23.11328125 C-0.02355469 24.06589844 -0.01195313 25.01851562 0 26 C-0.66 25.67 -1.32 25.34 -2 25 C-2.05437005 22.14557247 -2.09384974 19.29219924 -2.125 16.4375 C-2.14175781 15.63763672 -2.15851563 14.83777344 -2.17578125 14.01367188 C-2.21723982 8.93499665 -1.64056075 4.81188094 0 0 Z " fill="#CD8054" transform="translate(91,95)"/>
<path d="M0 0 C0.33 0 0.66 0 1 0 C1.06058594 1.19238281 1.12117188 2.38476562 1.18359375 3.61328125 C1.26801149 5.17969925 1.35265887 6.74610488 1.4375 8.3125 C1.47681641 9.09818359 1.51613281 9.88386719 1.55664062 10.69335938 C1.59853516 11.45068359 1.64042969 12.20800781 1.68359375 12.98828125 C1.73858032 14.03302612 1.73858032 14.03302612 1.79467773 15.09887695 C1.95581153 17.2216572 1.95581153 17.2216572 3 20 C6.3 20.33 9.6 20.66 13 21 C13 21.33 13 21.66 13 22 C11.02090602 22.02686553 9.04171029 22.04633375 7.0625 22.0625 C5.96035156 22.07410156 4.85820313 22.08570313 3.72265625 22.09765625 C1 22 1 22 0 21 C-0.08685603 19.43827255 -0.10702219 17.87270656 -0.09765625 16.30859375 C-0.09443359 15.36435547 -0.09121094 14.42011719 -0.08789062 13.44726562 C-0.07951172 12.45404297 -0.07113281 11.46082031 -0.0625 10.4375 C-0.05798828 9.44041016 -0.05347656 8.44332031 -0.04882812 7.41601562 C-0.03700007 4.94395151 -0.02051849 2.47200482 0 0 Z " fill="#BC6E3E" transform="translate(70,179)"/>
<path d="M0 0 C1.175625 0.0825 2.35125 0.165 3.5625 0.25 C4.2225 1.24 4.8825 2.23 5.5625 3.25 C4.9025 3.25 4.2425 3.25 3.5625 3.25 C3.5625 4.9 3.5625 6.55 3.5625 8.25 C2.9025 8.25 2.2425 8.25 1.5625 8.25 C1.19125 7.3528125 1.19125 7.3528125 0.8125 6.4375 C-0.60120012 3.96352479 -2.08805383 2.81629745 -4.4375 1.25 C-3.4375 0.25 -3.4375 0.25 0 0 Z " fill="#D06D33" transform="translate(179.4375,187.75)"/>
<path d="M0 0 C2.97 0 5.94 0 9 0 C9.38218767 1.65614657 9.71395102 3.32457024 10 5 C9 6 9 6 6.93359375 6.09765625 C6.10988281 6.08605469 5.28617187 6.07445312 4.4375 6.0625 C3.61121094 6.05347656 2.78492187 6.04445312 1.93359375 6.03515625 C1.29550781 6.02355469 0.65742187 6.01195312 0 6 C0 5.34 0 4.68 0 4 C2.64 4 5.28 4 8 4 C8 3.34 8 2.68 8 2 C5.36 1.67 2.72 1.34 0 1 C0 0.67 0 0.34 0 0 Z " fill="#C17F55" transform="translate(122,186)"/>
<path d="M0 0 C2.85793316 2.85793316 2.40799941 5.14665584 2.625 9.125 C2.69976562 10.40632812 2.77453125 11.68765625 2.8515625 13.0078125 C2.92503906 14.48894531 2.92503906 14.48894531 3 16 C2.01 16 1.02 16 0 16 C0 10.72 0 5.44 0 0 Z " fill="#D76726" transform="translate(159,183)"/>
<path d="M0 0 C0.33 0.99 0.66 1.98 1 3 C0.401875 3.556875 -0.19625 4.11375 -0.8125 4.6875 C-3.09394233 6.90938858 -3.09394233 6.90938858 -4.5 9.6875 C-6 12 -6 12 -8.09375 12.64453125 C-8.7228125 12.76183594 -9.351875 12.87914062 -10 13 C-6.73279209 8.61105071 -3.45101522 4.24740335 0 0 Z " fill="#CA7D4E" transform="translate(116,129)"/>
<path d="M0 0 C1.65 1.65 3.3 3.3 5 5 C3.68 4.67 2.36 4.34 1 4 C0.67 4.99 0.34 5.98 0 7 C-1.98 7 -3.96 7 -6 7 C-6 6.34 -6 5.68 -6 5 C-5.01 5 -4.02 5 -3 5 C-3 4.34 -3 3.68 -3 3 C-2.34 3 -1.68 3 -1 3 C-0.67 2.01 -0.34 1.02 0 0 Z " fill="#C87B4D" transform="translate(147,139)"/>
<path d="M0 0 C2.475 0.495 2.475 0.495 5 1 C5 1.66 5 2.32 5 3 C6.65 2.34 8.3 1.68 10 1 C8.35 2.98 6.7 4.96 5 7 C4.67 6.01 4.34 5.02 4 4 C2.68 4 1.36 4 0 4 C0.33 3.34 0.66 2.68 1 2 C0.67 1.34 0.34 0.68 0 0 Z " fill="#C77748" transform="translate(146,78)"/>
<path d="M0 0 C0.99 0.33 1.98 0.66 3 1 C-1.30769231 6.78461538 -1.30769231 6.78461538 -4.8125 7.875 C-5.8953125 7.936875 -5.8953125 7.936875 -7 8 C-6.02133662 6.85373678 -5.04205413 5.70800212 -4.0625 4.5625 C-3.51722656 3.92441406 -2.97195312 3.28632812 -2.41015625 2.62890625 C-1.63204305 1.73008851 -0.84063472 0.84063472 0 0 Z " fill="#CC743D" transform="translate(151,102)"/>
<path d="M0 0 C0.66 0 1.32 0 2 0 C2 1.65 2 3.3 2 5 C5.58327753 6.00217064 5.58327753 6.00217064 9 5 C8.67 6.32 8.34 7.64 8 9 C1.125 8.125 1.125 8.125 0 7 C-0.04092937 4.66702567 -0.04241723 2.33294775 0 0 Z " fill="#C68962" transform="translate(97,137)"/>
<path d="M0 0 C3.26008643 3.16952847 6.22237877 6.39937989 9 10 C6 10 6 10 4.4375 8.6875 C2.062709 5.89970187 0.7351988 3.55346086 0 0 Z " fill="#C77F53" transform="translate(95,90)"/>
<path d="M0 0 C3.3 0 6.6 0 10 0 C9 2 9 2 7.15234375 2.6328125 C6.42144531 2.79523438 5.69054687 2.95765625 4.9375 3.125 C3.83728516 3.37636719 3.83728516 3.37636719 2.71484375 3.6328125 C2.14894531 3.75398437 1.58304687 3.87515625 1 4 C0.67 2.68 0.34 1.36 0 0 Z " fill="#D86524" transform="translate(100,179)"/>
<path d="M0 0 C0 3.64478912 -0.85802506 5.09303401 -3 8 C-5.1875 8.8125 -5.1875 8.8125 -7 9 C-2.85714286 2.57142857 -2.85714286 2.57142857 0 0 Z " fill="#CB7443" transform="translate(89,70)"/>
<path d="M0 0 C2.64 0 5.28 0 8 0 C8.33 1.65 8.66 3.3 9 5 C8.34 4.34 7.68 3.68 7 3 C4.34462628 2.43479997 1.70855287 2.26211802 -1 2 C-0.67 1.34 -0.34 0.68 0 0 Z " fill="#BF794D" transform="translate(141,194)"/>
<path d="M0 0 C3.73639216 1.24546405 4.18756513 2.63404953 6 6 C4.68 6 3.36 6 2 6 C1.34 5.01 0.68 4.02 0 3 C-0.33 3.66 -0.66 4.32 -1 5 C-1.66 4.67 -2.32 4.34 -3 4 C-2.01 2.68 -1.02 1.36 0 0 Z " fill="#CC8359" transform="translate(127,116)"/>
<path d="M0 0 C1.65 1.32 3.3 2.64 5 4 C4.67 4.99 4.34 5.98 4 7 C1.5625 6.625 1.5625 6.625 -1 6 C-1.33 5.34 -1.66 4.68 -2 4 C-0.68 4.33 0.64 4.66 2 5 C1.34 3.35 0.68 1.7 0 0 Z " fill="#C58965" transform="translate(110,89)"/>
<path d="M0 0 C1.32 0 2.64 0 4 0 C3.67 1.98 3.34 3.96 3 6 C1.02 5.34 -0.96 4.68 -3 4 C-3.33 4.66 -3.66 5.32 -4 6 C-4 5.01 -4 4.02 -4 3 C-2.68 3 -1.36 3 0 3 C0 2.01 0 1.02 0 0 Z " fill="#CB6C34" transform="translate(98,77)"/>
<path d="M0 0 C2.12508244 3.18762365 2.5020163 5.26512223 3 9 C1.35 9.33 -0.3 9.66 -2 10 C-2 9.34 -2 8.68 -2 8 C-1.01 8 -0.02 8 1 8 C0.67 5.36 0.34 2.72 0 0 Z " fill="#C1825B" transform="translate(152,191)"/>
<path d="M0 0 C1.65 0 3.3 0 5 0 C5 0.66 5 1.32 5 2 C5.66 2 6.32 2 7 2 C7 2.99 7 3.98 7 5 C6.01 5 5.02 5 4 5 C4 4.34 4 3.68 4 3 C2.68 2.34 1.36 1.68 0 1 C0 0.67 0 0.34 0 0 Z " fill="#D66828" transform="translate(178,179)"/>
<path d="M0 0 C0.66 0.33 1.32 0.66 2 1 C-4.45 5.09326923 -4.45 5.09326923 -7.234375 4.62109375 C-7.81703125 4.41613281 -8.3996875 4.21117187 -9 4 C-7.54618103 3.30300448 -6.08677047 2.61766134 -4.625 1.9375 C-3.40683594 1.36322266 -3.40683594 1.36322266 -2.1640625 0.77734375 C-1.44992188 0.52082031 -0.73578125 0.26429687 0 0 Z " fill="#CA855B" transform="translate(111,57)"/>
<path d="M0 0 C0.66 0.33 1.32 0.66 2 1 C-0.97 3.475 -0.97 3.475 -4 6 C-4.66 5.34 -5.32 4.68 -6 4 C-4.02 2.68 -2.04 1.36 0 0 Z " fill="#CA7546" transform="translate(100,62)"/>
<path d="M0 0 C0.66 0.33 1.32 0.66 2 1 C-0.97 4.96 -0.97 4.96 -4 9 C-4.33 8.01 -4.66 7.02 -5 6 C-4.01 5.67 -3.02 5.34 -2 5 C-0.78130071 2.49552484 -0.78130071 2.49552484 0 0 Z " fill="#C47647" transform="translate(175,140)"/>
<path d="M0 0 C2.5 1.75 2.5 1.75 5 4 C5 5.32 5 6.64 5 8 C4.01 8 3.02 8 2 8 C1.855625 7.236875 1.71125 6.47375 1.5625 5.6875 C1.0367406 2.91827092 1.0367406 2.91827092 0 0 Z " fill="#C0815C" transform="translate(105,92)"/>
<path d="M0 0 C0.99 0.66 1.98 1.32 3 2 C2.34 3.32 1.68 4.64 1 6 C-0.5 4.625 -0.5 4.625 -2 3 C-2 2.34 -2 1.68 -2 1 C-1.34 0.67 -0.68 0.34 0 0 Z " fill="#CB7442" transform="translate(105,94)"/>
</svg>
